<svg width="158" height="210" viewBox="0 0 158 210" fill="none" xmlns="http://www.w3.org/2000/svg">
<rect x="59.9473" y="68.3936" width="19" height="45" rx="9.5" transform="rotate(121.788 59.9473 68.3936)" fill="white" stroke="#C5C5C5"/>
<rect x="35.3338" y="61.2737" width="19" height="45" rx="9.5" transform="rotate(157.655 35.3338 61.2737)" fill="white" stroke="#C5C5C5"/>
<path d="M114.5 34C114.5 52.4338 97.1121 67.5 75.5 67.5C53.8879 67.5 36.5 52.4338 36.5 34C36.5 15.5662 53.8879 0.5 75.5 0.5C97.1121 0.5 114.5 15.5662 114.5 34Z" fill="white" stroke="#C5C5C5"/>
<path d="M94.5 31.5C94.5 44.7454 83.5405 55.5 70 55.5C56.4595 55.5 45.5 44.7454 45.5 31.5C45.5 18.2546 56.4595 7.5 70 7.5C83.5405 7.5 94.5 18.2546 94.5 31.5Z" fill="#96E6FF" stroke="#97B6C0"/>
<rect x="45.5" y="62.5" width="64" height="78" rx="14.5" fill="white" stroke="#C5C5C5"/>
<rect x="0.635707" y="0.30964" width="19" height="45" rx="9.5" transform="matrix(0.326067 0.945347 0.945347 -0.326067 89.4347 66.9687)" fill="white" stroke="#C5C5C5"/>
<rect x="0.696583" y="-0.12154" width="19" height="45" rx="9.5" transform="matrix(0.818123 0.575043 0.575043 -0.818123 115.013 65.4601)" fill="white" stroke="#C5C5C5"/>
<rect x="-0.387681" y="-0.5872" width="24.2682" height="52.1564" rx="12.1341" transform="matrix(-0.980664 -0.195701 0.205302 -0.978699 31.2269 204.361)" fill="white" stroke="#C5C5C5"/>
<rect x="0.0288073" y="-0.674822" width="23.4382" height="54.1709" rx="11.7191" transform="matrix(-0.70794 -0.706273 0.765555 -0.643371 29.1996 175.026)" fill="white" stroke="#C5C5C5"/>
<rect x="0.627814" y="-0.317725" width="24.2682" height="52.1564" rx="12.1341" transform="matrix(0.948669 0.316272 0.30696 -0.951723 85.2012 204.493)" fill="white" stroke="#C5C5C5"/>
<rect x="0.309567" y="-0.600319" width="23.4382" height="54.1709" rx="11.7191" transform="matrix(0.964975 -0.262344 -0.34584 -0.938294 102.307 180.23)" fill="white" stroke="#C5C5C5"/>
<rect x="56" y="72" width="30" height="31" rx="5" fill="#A3B4BE"/>
</svg>
